<svg width="112" height="105" viewBox="0 0 112 105" fill="none" xmlns="http://www.w3.org/2000/svg">
<ellipse cx="56" cy="52.5" rx="56" ry="52.5" fill="#51C4F3"/>
<path d="M54.7061 29V36.6169H57.2932V29H54.7058H54.7061ZM44.1417 31.289L42.022 32.7731L46.3901 39.011L48.5086 37.5268L44.1417 31.289ZM67.8571 31.289L63.4903 37.5268L65.6091 39.011L69.9771 32.7731L67.8575 31.289H67.8571ZM55.9991 38.701C49.67 38.701 44.5394 42.5443 44.5394 47.286L51.0503 67.0039H60.9491L67.4594 47.286C67.4594 42.5444 62.3291 38.701 55.9997 38.701H55.9991ZM35.4181 40.9869L34.5342 43.4195L41.6881 46.024L42.5754 43.5926L35.418 40.9869H35.4181ZM76.5806 40.9869L69.4232 43.5928L70.3074 46.0245L77.4649 43.4195L76.5806 40.9869ZM42.2298 52.1072L34.8738 54.0803L35.5412 56.5775L42.8972 54.6073L42.2299 52.1072H42.2298ZM69.769 52.1072L69.102 54.6073L76.458 56.5772L77.125 54.0799L69.769 52.1072V52.1072ZM50.9059 68.4413V71.8687H61.0934V68.4418H50.906L50.9059 68.4413ZM50.9059 73.5726V77H61.0934V73.5731H50.906L50.9059 73.5726Z" fill="#FEFAEB"/>
</svg>
