<svg width="103" height="27" viewBox="0 0 103 27" fill="none" xmlns="http://www.w3.org/2000/svg">
<g clip-path="url(#clip0_206_208)">
<path d="M97.2319 7.33327L92.2783 21.8463C92.2667 21.8803 92.2448 21.9098 92.2156 21.9308C92.1864 21.9517 92.1514 21.963 92.1155 21.9631C92.0706 21.9731 92.0235 21.9668 91.9828 21.9454C91.942 21.924 91.9102 21.8889 91.8929 21.8463L89.0543 13.4501C89.0445 13.4235 89.0283 13.3998 89.0071 13.381C88.9859 13.3622 88.9603 13.349 88.9327 13.3425C88.9052 13.336 88.8764 13.3365 88.849 13.3438C88.8217 13.3512 88.7966 13.3653 88.776 13.3847L85.4587 16.6978C85.4356 16.7208 85.4195 16.7499 85.4124 16.7817C85.4052 16.8135 85.4073 16.8467 85.4184 16.8773L88.8817 26.3922C88.8939 26.4252 88.9159 26.4537 88.9448 26.4738C88.9736 26.4939 89.0079 26.5048 89.0431 26.5049H94.9777C95.0129 26.5048 95.0472 26.4939 95.0761 26.4738C95.1049 26.4537 95.1269 26.4252 95.1391 26.3922L102.026 7.44737C102.035 7.42158 102.038 7.39392 102.034 7.36672C102.031 7.33951 102.021 7.31357 102.005 7.29106C101.989 7.26855 101.969 7.25015 101.944 7.23739C101.92 7.22464 101.893 7.21791 101.865 7.21777H97.3933C97.3577 7.21786 97.3231 7.22904 97.2942 7.24973C97.2652 7.27043 97.2435 7.29963 97.2319 7.33327Z" fill="#FEFAEB"/>
<path d="M86.8168 7.21778H82.1512C82.1236 7.21769 82.0965 7.22426 82.072 7.23692C82.0475 7.24958 82.0265 7.26796 82.0106 7.2905C81.9948 7.31304 81.9846 7.33907 81.981 7.36638C81.9774 7.39369 81.9804 7.42148 81.9898 7.44737L84.1911 13.4975C84.2011 13.5239 84.2176 13.5473 84.2389 13.5658C84.2603 13.5843 84.2859 13.5972 84.3134 13.6034C84.341 13.6096 84.3696 13.6089 84.3968 13.6014C84.4241 13.5938 84.449 13.5796 84.4694 13.5601L87.8381 10.1872C87.8607 10.1647 87.8766 10.1364 87.8839 10.1054C87.8913 10.0745 87.8899 10.0421 87.8799 10.0118L86.9782 7.33327C86.967 7.29941 86.9453 7.26997 86.9163 7.24921C86.8873 7.22846 86.8524 7.21745 86.8168 7.21778Z" fill="#FF803F"/>
<path d="M7.8743 0V18.3673C7.8743 19.5807 7.59601 20.4545 7.06169 21C6.52737 21.5455 5.641 21.814 4.42764 21.814H0V26.5102H5.10946C7.81262 26.5102 9.77505 25.8915 10.9968 24.654C12.2185 23.4165 12.8312 21.4601 12.8349 18.7848V0H7.8743Z" fill="#FEFAEB"/>
<path d="M33.9658 11.7177C30.3689 5.22238 19.5377 5.22099 15.9436 11.7177C15.0604 13.2428 14.6175 14.978 14.6147 16.9232C14.5201 22.7674 19.1509 27.106 24.9519 26.9974C30.7529 27.106 35.3879 22.7757 35.2891 16.9232C35.2891 14.9807 34.848 13.2456 33.9658 11.7177ZM28.8744 21.0879C27.8995 22.125 26.592 22.6421 24.9519 22.6394C21.6388 22.67 19.5252 20.2419 19.5795 16.9232C19.5294 13.6449 21.6555 11.1709 24.9519 11.2071C28.2525 11.1709 30.3786 13.6449 30.3299 16.9232C30.3341 18.6653 29.8415 20.054 28.8744 21.0879Z" fill="#FEFAEB"/>
<path d="M56.4155 11.7172C52.8214 5.21908 41.9888 5.22465 38.3933 11.7172C37.5092 13.2423 37.0681 14.9774 37.07 16.9227C36.9684 22.7669 41.6048 27.1041 47.4072 26.9969C53.2068 27.1041 57.8432 22.771 57.743 16.9227C57.7449 14.9802 57.3024 13.2451 56.4155 11.7172ZM51.3242 21.0874C50.3529 22.1235 49.0473 22.6407 47.4072 22.6388C44.0913 22.6695 41.9805 20.2413 42.0292 16.9227C41.9833 13.6444 44.1094 11.1704 47.4072 11.2066C50.7036 11.1704 52.8339 13.6444 52.7838 16.9227C52.7838 18.6648 52.2973 20.053 51.3242 21.0874Z" fill="#FEFAEB"/>
<path d="M75.4616 7.34279V8.2876C73.8127 7.31357 71.9662 6.85439 69.8609 6.85161C64.0599 6.74307 59.4249 11.0719 59.5251 16.923C59.4222 22.7672 64.0599 27.103 69.8609 26.9972C71.9662 26.9972 73.8127 26.5255 75.4616 25.5585V26.5033H80.1926V7.34279H75.4616ZM73.7779 21.0863C72.8067 22.1243 71.501 22.6424 69.8609 22.6406C66.5465 22.6698 64.4342 20.2417 64.4843 16.923C64.437 13.6447 66.5618 11.1707 69.8609 11.2083C73.1573 11.1707 75.2876 13.6461 75.2389 16.923C75.2389 18.6642 74.7519 20.052 73.7779 21.0863Z" fill="#FEFAEB"/>
</g>
<defs>
<clipPath id="clip0_206_208">
<rect width="102.036" height="27" fill="white"/>
</clipPath>
</defs>
</svg>
