<svg width="112" height="105" viewBox="0 0 112 105" fill="none" xmlns="http://www.w3.org/2000/svg">
<ellipse cx="56" cy="52.5" rx="56" ry="52.5" fill="#51C4F3"/>
<path d="M72.911 38.0894L77.939 39.0944C78.209 39.1484 78.431 39.3464 78.509 39.6134C78.5484 39.7431 78.5519 39.881 78.5192 40.0125C78.4864 40.1441 78.4186 40.2643 78.323 40.3604L74.204 44.4824C73.7104 44.9731 73.043 45.2492 72.347 45.2504H68.93L60.35 53.8334C60.5137 54.4514 60.5438 55.0973 60.4383 55.7279C60.3328 56.3585 60.0942 56.9594 59.7382 57.4905C59.3823 58.0217 58.9173 58.4709 58.3741 58.8082C57.831 59.1455 57.2222 59.3632 56.5883 59.4468C55.9544 59.5304 55.31 59.478 54.6979 59.293C54.0859 59.108 53.5203 58.7947 53.0389 58.3739C52.5574 57.9532 52.1712 57.4347 51.9058 56.853C51.6405 56.2713 51.5021 55.6397 51.5 55.0004C51.4999 54.3098 51.6586 53.6285 51.964 53.0092C52.2694 52.3899 52.7132 51.8492 53.2611 51.4289C53.809 51.0086 54.4463 50.72 55.1236 50.5856C55.8009 50.4511 56.5001 50.4743 57.167 50.6534L65.75 42.0674V38.6564C65.75 37.9604 66.026 37.2914 66.518 36.7994L70.64 32.6774C70.7361 32.5817 70.8563 32.514 70.9878 32.4812C71.1193 32.4485 71.2573 32.452 71.387 32.4914C71.654 32.5694 71.852 32.7914 71.906 33.0614L72.911 38.0894Z" fill="#FEFAEB"/>
<path d="M38.0001 55.0004C38.0032 57.5743 38.5582 60.1175 39.6278 62.4587C40.6974 64.7998 42.2566 66.8843 44.2003 68.5716C46.1439 70.2589 48.4269 71.5098 50.8951 72.2397C53.3633 72.9697 55.9593 73.1619 58.5081 72.8032C61.0569 72.4446 63.4991 71.5435 65.67 70.1608C67.841 68.778 69.6901 66.9458 71.0927 64.7876C72.4953 62.6295 73.4187 60.1956 73.8007 57.6502C74.1827 55.1049 74.0144 52.5072 73.3071 50.0324C73.2078 49.7432 73.1683 49.4369 73.1912 49.1321C73.2141 48.8272 73.2987 48.5302 73.44 48.2591C73.5813 47.988 73.7763 47.7485 74.0132 47.5552C74.25 47.3619 74.5237 47.2188 74.8176 47.1346C75.1115 47.0504 75.4194 47.0269 75.7227 47.0656C76.0259 47.1042 76.3181 47.2042 76.5815 47.3594C76.8449 47.5145 77.074 47.7217 77.2548 47.9682C77.4356 48.2148 77.5643 48.4955 77.6331 48.7934C79.0027 53.586 78.7425 58.6976 76.8934 63.3264C75.0444 67.9551 71.711 71.8391 67.4163 74.369C63.1216 76.8989 58.1086 77.9314 53.1637 77.3048C48.2188 76.6781 43.6219 74.4276 40.0941 70.9064C36.5701 67.3794 34.3172 62.782 33.6891 57.836C33.061 52.89 34.0932 47.8754 36.6237 43.5796C39.1543 39.2838 43.0398 35.95 47.6703 34.1016C52.3007 32.2532 57.4139 31.995 62.2071 33.3674C62.7778 33.5342 63.2593 33.9202 63.5463 34.4409C63.8333 34.9617 63.9025 35.5749 63.7388 36.1465C63.5751 36.7181 63.1918 37.2017 62.6726 37.4916C62.1534 37.7814 61.5406 37.854 60.9681 37.6934C58.2878 36.9237 55.4653 36.7873 52.7233 37.295C49.9813 37.8026 47.3948 38.9404 45.1677 40.6186C42.9406 42.2968 41.1338 44.4695 39.89 46.9653C38.6461 49.4611 37.9991 52.2118 38.0001 55.0004Z" fill="#FEFAEB"/>
<path d="M47.0005 54.9992C47.0006 56.639 47.4485 58.2476 48.2958 59.6515C49.143 61.0555 50.3575 62.2014 51.8082 62.9658C53.2589 63.7302 54.8907 64.0841 56.5278 63.9891C58.1648 63.8942 59.7448 63.3542 61.0975 62.4272C62.4498 61.4979 63.5224 60.2166 64.1992 58.7218C64.8761 57.227 65.1313 55.5756 64.9375 53.9462C64.885 53.5508 64.9389 53.1486 65.0936 52.781C65.2483 52.4133 65.4982 52.0935 65.8175 51.8546C66.1369 51.6156 66.5141 51.4661 66.9105 51.4214C67.3068 51.3766 67.7079 51.4384 68.0725 51.6002C68.4369 51.76 68.7525 52.0135 68.987 52.335C69.2216 52.6565 69.3666 53.0344 69.4075 53.4302C69.7334 56.2145 69.1845 59.0312 67.837 61.4894C66.4895 63.9476 64.4101 65.9253 61.8875 67.1481C59.3649 68.3709 56.5242 68.778 53.7597 68.313C50.9953 67.848 48.4441 66.5339 46.4603 64.5532C44.4766 62.5725 43.1587 60.0233 42.6895 57.2595C42.2203 54.4958 42.6231 51.6545 43.842 49.13C45.0609 46.6056 47.0355 44.5232 49.4916 43.1719C51.9478 41.8206 54.7637 41.2675 57.5485 41.5892C57.8466 41.6169 58.1363 41.7038 58.4005 41.8449C58.6646 41.9859 58.898 42.1783 59.0868 42.4107C59.2757 42.6431 59.4162 42.9109 59.5002 43.1984C59.5842 43.4858 59.61 43.7871 59.5761 44.0847C59.5421 44.3822 59.4491 44.67 59.3025 44.9311C59.1559 45.1922 58.9587 45.4214 58.7223 45.6054C58.486 45.7893 58.2153 45.9241 57.9262 46.0021C57.637 46.08 57.3352 46.0994 57.0385 46.0592C55.7774 45.9128 54.4997 46.0348 53.2892 46.4173C52.0786 46.7997 50.9627 47.4339 50.0147 48.2782C49.0667 49.1226 48.308 50.1579 47.7885 51.3162C47.269 52.4746 47.0004 53.7297 47.0005 54.9992Z" fill="#FEFAEB"/>
</svg>
