<svg width="1065" height="367" viewBox="0 0 1065 367" fill="none" xmlns="http://www.w3.org/2000/svg">
<path d="M56 53L314.846 203.431C321.893 207.526 330.537 207.765 337.8 204.065L623.672 58.425C630.379 55.0084 638.299 54.9357 645.067 58.2287L957 210" stroke="#FF803F" stroke-opacity="0.2" stroke-width="8" stroke-dasharray="4 4"/>
<ellipse cx="56" cy="52.5" rx="56" ry="52.5" fill="#51C4F3"/>
<path d="M54.7061 29V36.6169H57.2932V29H54.7058H54.7061ZM44.1417 31.289L42.022 32.7731L46.3901 39.011L48.5086 37.5268L44.1417 31.289ZM67.8571 31.289L63.4903 37.5268L65.6091 39.011L69.9771 32.7731L67.8575 31.289H67.8571ZM55.9991 38.701C49.67 38.701 44.5394 42.5443 44.5394 47.286L51.0503 67.0039H60.9491L67.4594 47.286C67.4594 42.5444 62.3291 38.701 55.9997 38.701H55.9991ZM35.4181 40.9869L34.5342 43.4195L41.6881 46.024L42.5754 43.5926L35.418 40.9869H35.4181ZM76.5806 40.9869L69.4232 43.5928L70.3074 46.0245L77.4649 43.4195L76.5806 40.9869ZM42.2298 52.1072L34.8738 54.0803L35.5412 56.5775L42.8972 54.6073L42.2299 52.1072H42.2298ZM69.769 52.1072L69.102 54.6073L76.458 56.5772L77.125 54.0799L69.769 52.1072V52.1072ZM50.9059 68.4413V71.8687H61.0934V68.4418H50.906L50.9059 68.4413ZM50.9059 73.5726V77H61.0934V73.5731H50.906L50.9059 73.5726Z" fill="#FEFAEB"/>
<path d="M31.0734 146H28.4974V127.52H31.0734V146ZM46.4006 134.254V126.092L48.9626 125.826V146H46.7646L46.4566 143.732C45.2386 145.398 43.3346 146.35 41.1086 146.35C37.1466 146.35 33.9686 143.312 33.9686 139.028C33.9686 134.786 37.1606 131.72 41.1506 131.72C43.3346 131.72 45.1966 132.644 46.4006 134.254ZM41.3886 144.082C44.1326 144.082 46.4006 141.94 46.4006 139.028C46.4006 136.13 44.1326 133.988 41.3886 133.988C38.7146 133.988 36.5726 136.102 36.5726 139.028C36.5726 141.968 38.7146 144.082 41.3886 144.082ZM66.708 139.126C66.708 139.364 66.694 139.504 66.666 139.784H54.36C54.556 142.066 56.376 144.194 59.302 144.194C61.402 144.194 63.18 143.102 63.922 141.478L66.12 142.514C64.944 144.838 62.438 146.35 59.302 146.35C54.85 146.35 51.742 143.256 51.742 139.07C51.742 134.73 55.116 131.72 59.246 131.72C63.628 131.72 66.708 134.954 66.708 139.126ZM59.204 133.862C56.768 133.862 54.808 135.598 54.416 137.852H64.02C63.67 135.5 61.696 133.862 59.204 133.862ZM80.9918 134.324L81.2998 132.07H83.4978V146H81.2998L80.9918 143.732C79.7738 145.398 77.8698 146.35 75.6438 146.35C71.6818 146.35 68.5038 143.312 68.5038 139.028C68.5038 134.786 71.6958 131.72 75.6858 131.72C77.8978 131.72 79.7878 132.672 80.9918 134.324ZM75.9238 144.082C78.6678 144.082 80.9358 141.94 80.9358 139.028C80.9358 136.13 78.6678 133.988 75.9238 133.988C73.2498 133.988 71.1078 136.102 71.1078 139.028C71.1078 141.968 73.2498 144.082 75.9238 144.082Z" fill="#2F7BEB"/>
<path d="M37.033 177.996L32.977 181.38H41.305V183H30.373V181.512L35.701 177.048C37.789 175.296 39.265 173.844 39.265 171.732C39.265 169.74 37.945 168.432 35.773 168.432C33.397 168.432 32.005 170.028 32.005 172.428L30.373 171.732C30.517 168.792 32.869 166.872 35.893 166.872C39.061 166.872 41.065 168.876 41.065 171.624C41.065 174.504 38.989 176.388 37.033 177.996ZM49.3185 183.288C45.6105 183.288 43.3545 180.444 43.3545 175.08C43.3545 169.716 45.7305 166.872 49.4145 166.872C53.0985 166.872 55.3305 169.692 55.3305 175.08C55.3305 180.468 53.0265 183.288 49.3185 183.288ZM49.3665 181.668C52.0905 181.668 53.5065 179.484 53.5065 175.08C53.5065 170.676 52.0905 168.492 49.3665 168.492C46.6425 168.492 45.1665 170.652 45.1665 175.08C45.1665 179.508 46.6425 181.668 49.3665 181.668ZM64.033 177.996L59.977 181.38H68.305V183H57.373V181.512L62.701 177.048C64.789 175.296 66.265 173.844 66.265 171.732C66.265 169.74 64.945 168.432 62.773 168.432C60.397 168.432 59.005 170.028 59.005 172.428L57.373 171.732C57.517 168.792 59.869 166.872 62.893 166.872C66.061 166.872 68.065 168.876 68.065 171.624C68.065 174.504 65.989 176.388 64.033 177.996ZM78.2025 174.768C80.4105 175.2 81.6225 176.484 81.6225 178.68C81.6225 181.704 78.8385 183.288 75.9945 183.288C73.4385 183.288 71.2425 182.184 70.3545 179.688L71.9385 178.896C72.4785 180.864 74.0265 181.74 75.9945 181.74C78.1185 181.74 79.8465 180.648 79.8225 178.572C79.7985 176.508 78.4305 175.632 75.8265 175.632H74.1705V174.024H75.6825C78.0465 174.024 79.3785 173.124 79.3785 171.18C79.3785 169.296 77.8185 168.36 75.9705 168.36C74.0865 168.36 72.7185 169.248 72.1665 171.216L70.5945 170.412C71.5305 167.928 73.7265 166.824 76.0905 166.824C78.6465 166.824 81.1545 168.216 81.1545 171.072C81.1545 173.016 80.0985 174.276 78.2025 174.768Z" fill="#49505B"/>
<ellipse cx="302" cy="226.5" rx="56" ry="52.5" fill="#51C4F3"/>
<path d="M320.866 212.722L308.866 243.722C308.748 244.029 308.555 244.302 308.306 244.516C308.056 244.731 307.757 244.881 307.436 244.952C307.115 245.024 306.781 245.015 306.464 244.927C306.147 244.838 305.856 244.673 305.618 244.446L298.854 237.976L294.706 242.122C294.566 242.261 294.388 242.356 294.194 242.394C294.001 242.433 293.8 242.413 293.617 242.337C293.435 242.261 293.279 242.133 293.169 241.969C293.059 241.804 293 241.611 293 241.414V232.376L282.618 222.446C282.361 222.199 282.174 221.888 282.077 221.545C281.98 221.202 281.976 220.84 282.066 220.495C282.156 220.15 282.337 219.835 282.589 219.584C282.842 219.332 283.157 219.152 283.502 219.064L318.502 210.064C318.858 209.972 319.232 209.981 319.584 210.088C319.935 210.196 320.25 210.398 320.494 210.672C320.738 210.947 320.901 211.283 320.967 211.645C321.032 212.006 320.997 212.379 320.864 212.722H320.866ZM316 215.002L294.064 229.304L297.534 232.624L316 215.002Z" fill="#FEFAEB"/>
<path d="M275.345 301.52H283.017C286.867 301.52 289.541 304.012 289.541 307.526C289.541 311.026 286.867 313.532 283.017 313.532H277.921V320H275.345V301.52ZM277.921 311.25H283.045C285.369 311.25 286.895 309.71 286.895 307.526C286.895 305.342 285.369 303.802 283.045 303.802H277.921V311.25ZM293.614 303.802C292.578 303.802 291.836 303.088 291.836 302.08C291.836 301.058 292.578 300.358 293.614 300.358C294.65 300.358 295.378 301.058 295.378 302.08C295.378 303.088 294.65 303.802 293.614 303.802ZM294.888 320H292.326V306.07H294.888V320ZM301.395 320H298.833V300.092L301.395 299.826V320ZM311.658 320.35C307.458 320.35 304.168 317.27 304.168 313.056C304.168 308.856 307.514 305.72 311.714 305.72C315.886 305.72 319.204 308.8 319.204 313C319.204 317.214 315.816 320.35 311.658 320.35ZM311.686 318.082C314.416 318.082 316.614 315.94 316.614 313.028C316.614 310.13 314.416 307.988 311.686 307.988C308.914 307.988 306.758 310.13 306.758 313.028C306.758 315.94 308.914 318.082 311.686 318.082ZM327.621 320.224C324.695 320.224 323.141 318.488 323.141 315.646V308.268H320.327V306.07H323.155L324.205 302.178H325.703V306.07H329.777V308.268H325.703V315.254C325.703 317.116 326.319 318.026 328.041 318.026C328.643 318.026 329.273 317.914 329.763 317.774L330.099 319.902C329.259 320.098 328.419 320.224 327.621 320.224Z" fill="#2F7BEB"/>
<path d="M282.951 351.996L278.895 355.38H287.223V357H276.291V355.512L281.619 351.048C283.707 349.296 285.183 347.844 285.183 345.732C285.183 343.74 283.863 342.432 281.691 342.432C279.315 342.432 277.923 344.028 277.923 346.428L276.291 345.732C276.435 342.792 278.787 340.872 281.811 340.872C284.979 340.872 286.983 342.876 286.983 345.624C286.983 348.504 284.907 350.388 282.951 351.996ZM295.237 357.288C291.529 357.288 289.273 354.444 289.273 349.08C289.273 343.716 291.649 340.872 295.333 340.872C299.017 340.872 301.249 343.692 301.249 349.08C301.249 354.468 298.945 357.288 295.237 357.288ZM295.285 355.668C298.009 355.668 299.425 353.484 299.425 349.08C299.425 344.676 298.009 342.492 295.285 342.492C292.561 342.492 291.085 344.652 291.085 349.08C291.085 353.508 292.561 355.668 295.285 355.668ZM309.951 351.996L305.895 355.38H314.223V357H303.291V355.512L308.619 351.048C310.707 349.296 312.183 347.844 312.183 345.732C312.183 343.74 310.863 342.432 308.691 342.432C306.315 342.432 304.923 344.028 304.923 346.428L303.291 345.732C303.435 342.792 305.787 340.872 308.811 340.872C311.979 340.872 313.983 342.876 313.983 345.624C313.983 348.504 311.907 350.388 309.951 351.996ZM322.249 346.8C325.345 346.8 327.589 348.96 327.589 352.008C327.589 355.404 324.733 357.288 321.961 357.288C319.549 357.288 317.401 356.184 316.513 353.688L318.097 352.896C318.637 354.864 320.149 355.716 321.997 355.716C323.989 355.716 325.765 354.252 325.765 352.02C325.765 349.872 324.205 348.336 321.973 348.336C320.161 348.336 319.225 349.044 318.469 350.064L317.076 349.56L317.881 341.16H326.869V342.78L319.405 342.756L318.829 347.988C319.645 347.328 320.857 346.8 322.249 346.8Z" fill="#49505B"/>
<ellipse cx="632" cy="62.5" rx="56" ry="52.5" fill="#51C4F3"/>
<path d="M642 53C637.18 53 633.14 56.44 632.2 61H621.58C620.8 59.24 619.04 58 617 58C615.674 58 614.402 58.5268 613.464 59.4645C612.527 60.4021 612 61.6739 612 63C612 64.3261 612.527 65.5979 613.464 66.5355C614.402 67.4732 615.674 68 617 68C619.04 68 620.8 66.76 621.58 65H632.2C632.578 66.8538 633.475 68.5623 634.786 69.9269C636.096 71.2915 637.767 72.2563 639.604 72.7092C641.441 73.1622 643.369 73.0846 645.164 72.4857C646.958 71.8867 648.546 70.7908 649.743 69.3253C650.94 67.8599 651.697 66.085 651.925 64.2067C652.153 62.3285 651.844 60.424 651.033 58.7145C650.222 57.005 648.943 55.5606 647.344 54.5491C645.745 53.5375 643.892 53.0004 642 53ZM642 69C638.7 69 636 66.3 636 63C636 59.7 638.7 57 642 57C645.3 57 648 59.7 648 63C648 66.3 645.3 69 642 69Z" fill="#FEFAEB"/>
<path d="M603.581 156.35C599.899 156.35 596.959 154.81 596.105 151.366L598.625 150.456C599.031 153.032 601.145 154.124 603.679 154.124C605.947 154.124 608.075 153.284 608.075 151.142C608.075 149.532 606.885 148.664 605.247 148.286L600.893 147.236C598.219 146.592 596.637 144.814 596.637 142.448C596.637 138.92 599.675 137.17 603.413 137.17C607.025 137.17 609.839 138.78 610.623 142.126L608.103 143.036C607.697 140.488 605.709 139.396 603.371 139.396C601.215 139.396 599.241 140.18 599.241 142.322C599.241 143.89 600.291 144.688 601.957 145.052L606.255 146.046C609.223 146.732 610.707 148.622 610.707 151.002C610.707 154.67 607.319 156.35 603.581 156.35ZM619.847 156.35C615.689 156.35 612.525 153.242 612.525 149.028C612.525 144.828 615.787 141.72 619.987 141.72C623.193 141.72 625.587 143.288 626.721 145.738L624.425 146.746C623.669 145.094 622.017 143.988 619.931 143.988C617.257 143.988 615.143 146.13 615.143 149.028C615.143 151.94 617.257 154.082 619.931 154.082C622.017 154.082 623.669 152.976 624.425 151.324L626.721 152.332C625.531 154.782 623.165 156.35 619.847 156.35ZM641.119 144.324L641.427 142.07H643.625V156H641.427L641.119 153.732C639.901 155.398 637.997 156.35 635.771 156.35C631.809 156.35 628.631 153.312 628.631 149.028C628.631 144.786 631.823 141.72 635.813 141.72C638.025 141.72 639.915 142.672 641.119 144.324ZM636.051 154.082C638.795 154.082 641.063 151.94 641.063 149.028C641.063 146.13 638.795 143.988 636.051 143.988C633.377 143.988 631.235 146.102 631.235 149.028C631.235 151.968 633.377 154.082 636.051 154.082ZM650.14 156H647.578V136.092L650.14 135.826V156ZM667.878 149.126C667.878 149.364 667.864 149.504 667.836 149.784H655.53C655.726 152.066 657.546 154.194 660.472 154.194C662.572 154.194 664.35 153.102 665.092 151.478L667.29 152.514C666.114 154.838 663.608 156.35 660.472 156.35C656.02 156.35 652.912 153.256 652.912 149.07C652.912 144.73 656.286 141.72 660.416 141.72C664.798 141.72 667.878 144.954 667.878 149.126ZM660.374 143.862C657.938 143.862 655.978 145.598 655.586 147.852H665.19C664.84 145.5 662.866 143.862 660.374 143.862Z" fill="#2F7BEB"/>
<path d="M613.267 187.996L609.211 191.38H617.539V193H606.607V191.512L611.935 187.048C614.023 185.296 615.499 183.844 615.499 181.732C615.499 179.74 614.179 178.432 612.007 178.432C609.631 178.432 608.239 180.028 608.239 182.428L606.607 181.732C606.751 178.792 609.103 176.872 612.127 176.872C615.295 176.872 617.299 178.876 617.299 181.624C617.299 184.504 615.223 186.388 613.267 187.996ZM625.553 193.288C621.845 193.288 619.589 190.444 619.589 185.08C619.589 179.716 621.965 176.872 625.649 176.872C629.333 176.872 631.565 179.692 631.565 185.08C631.565 190.468 629.261 193.288 625.553 193.288ZM625.601 191.668C628.325 191.668 629.741 189.484 629.741 185.08C629.741 180.676 628.325 178.492 625.601 178.492C622.877 178.492 621.401 180.652 621.401 185.08C621.401 189.508 622.877 191.668 625.601 191.668ZM640.267 187.996L636.211 191.38H644.539V193H633.607V191.512L638.935 187.048C641.023 185.296 642.499 183.844 642.499 181.732C642.499 179.74 641.179 178.432 639.007 178.432C636.631 178.432 635.239 180.028 635.239 182.428L633.607 181.732C633.751 178.792 636.103 176.872 639.127 176.872C642.295 176.872 644.299 178.876 644.299 181.624C644.299 184.504 642.223 186.388 640.267 187.996ZM652.565 182.908C655.505 182.908 657.761 185.188 657.761 188.068C657.761 191.08 655.301 193.288 652.145 193.288C648.893 193.288 646.589 191.104 646.589 188.02C646.589 186.532 647.177 185.104 648.605 182.824L652.157 177.16H654.113L649.961 183.568C650.633 183.124 651.533 182.908 652.565 182.908ZM652.169 191.74C654.353 191.74 655.937 190.18 655.937 188.068C655.937 185.956 654.353 184.432 652.169 184.432C649.889 184.432 648.377 185.932 648.377 188.068C648.377 190.204 649.913 191.74 652.169 191.74Z" fill="#49505B"/>
<ellipse cx="942.5" cy="207.5" rx="56" ry="52.5" fill="#51C4F3"/>
<path d="M959.411 193.089L964.439 194.094C964.709 194.148 964.931 194.346 965.009 194.613C965.048 194.743 965.052 194.881 965.019 195.013C964.986 195.144 964.919 195.264 964.823 195.36L960.704 199.482C960.21 199.973 959.543 200.249 958.847 200.25H955.43L946.85 208.833C947.014 209.451 947.044 210.097 946.938 210.728C946.833 211.358 946.594 211.959 946.238 212.491C945.882 213.022 945.417 213.471 944.874 213.808C944.331 214.146 943.722 214.363 943.088 214.447C942.454 214.53 941.81 214.478 941.198 214.293C940.586 214.108 940.02 213.795 939.539 213.374C939.057 212.953 938.671 212.435 938.406 211.853C938.14 211.271 938.002 210.64 938 210C938 209.31 938.159 208.629 938.464 208.009C938.769 207.39 939.213 206.849 939.761 206.429C940.309 206.009 940.946 205.72 941.624 205.586C942.301 205.451 943 205.474 943.667 205.653L952.25 197.067V193.656C952.25 192.96 952.526 192.291 953.018 191.799L957.14 187.677C957.236 187.582 957.356 187.514 957.488 187.481C957.619 187.448 957.757 187.452 957.887 187.491C958.154 187.569 958.352 187.791 958.406 188.061L959.411 193.089Z" fill="#FEFAEB"/>
<path d="M924.5 210C924.503 212.574 925.058 215.118 926.128 217.459C927.197 219.8 928.757 221.884 930.7 223.572C932.644 225.259 934.927 226.51 937.395 227.24C939.863 227.97 942.459 228.162 945.008 227.803C947.557 227.445 949.999 226.544 952.17 225.161C954.341 223.778 956.19 221.946 957.593 219.788C958.995 217.629 959.919 215.196 960.301 212.65C960.683 210.105 960.514 207.507 959.807 205.032C959.708 204.743 959.668 204.437 959.691 204.132C959.714 203.827 959.799 203.53 959.94 203.259C960.081 202.988 960.276 202.749 960.513 202.555C960.75 202.362 961.024 202.219 961.318 202.135C961.611 202.05 961.919 202.027 962.223 202.066C962.526 202.104 962.818 202.204 963.082 202.359C963.345 202.515 963.574 202.722 963.755 202.968C963.936 203.215 964.064 203.496 964.133 203.793C965.503 208.586 965.242 213.698 963.393 218.326C961.544 222.955 958.211 226.839 953.916 229.369C949.622 231.899 944.609 232.931 939.664 232.305C934.719 231.678 930.122 229.428 926.594 225.906C923.07 222.379 920.817 217.782 920.189 212.836C919.561 207.89 920.593 202.875 923.124 198.58C925.654 194.284 929.54 190.95 934.17 189.102C938.801 187.253 943.914 186.995 948.707 188.367C949.278 188.534 949.759 188.92 950.046 189.441C950.333 189.962 950.403 190.575 950.239 191.147C950.075 191.718 949.692 192.202 949.173 192.492C948.653 192.781 948.041 192.854 947.468 192.693C944.788 191.924 941.965 191.787 939.223 192.295C936.481 192.803 933.895 193.94 931.668 195.619C929.441 197.297 927.634 199.469 926.39 201.965C925.146 204.461 924.499 207.212 924.5 210Z" fill="#FEFAEB"/>
<path d="M933.5 210C933.501 211.64 933.949 213.249 934.796 214.653C935.643 216.056 936.857 217.202 938.308 217.967C939.759 218.731 941.391 219.085 943.028 218.99C944.665 218.895 946.245 218.355 947.597 217.428C948.95 216.499 950.022 215.218 950.699 213.723C951.376 212.228 951.631 210.577 951.437 208.947C951.385 208.552 951.439 208.15 951.594 207.782C951.748 207.414 951.998 207.095 952.318 206.856C952.637 206.617 953.014 206.467 953.41 206.422C953.807 206.378 954.208 206.439 954.572 206.601C954.937 206.761 955.253 207.014 955.487 207.336C955.722 207.657 955.867 208.035 955.907 208.431C956.233 211.216 955.685 214.032 954.337 216.49C952.989 218.949 950.91 220.926 948.387 222.149C945.865 223.372 943.024 223.779 940.26 223.314C937.495 222.849 934.944 221.535 932.96 219.554C930.977 217.573 929.659 215.024 929.189 212.261C928.72 209.497 929.123 206.655 930.342 204.131C931.561 201.607 933.535 199.524 935.992 198.173C938.448 196.822 941.264 196.268 944.048 196.59C944.347 196.618 944.636 196.705 944.9 196.846C945.165 196.987 945.398 197.179 945.587 197.412C945.776 197.644 945.916 197.912 946 198.199C946.084 198.487 946.11 198.788 946.076 199.086C946.042 199.383 945.949 199.671 945.803 199.932C945.656 200.193 945.459 200.422 945.222 200.606C944.986 200.79 944.715 200.925 944.426 201.003C944.137 201.081 943.835 201.1 943.538 201.06C942.277 200.914 941 201.036 939.789 201.418C938.579 201.801 937.463 202.435 936.515 203.279C935.567 204.124 934.808 205.159 934.289 206.317C933.769 207.476 933.5 208.731 933.5 210Z" fill="#FEFAEB"/>
<path d="M824.973 301H822.425V282.52H825.099L834.605 296.73H834.703C834.675 295.33 834.675 293.93 834.675 292.53V282.52H837.223V301H834.549L825.029 286.888H824.945C824.973 288.288 824.973 289.688 824.973 291.088V301ZM852.607 289.324L852.915 287.07H855.113V301H852.915L852.607 298.732C851.389 300.398 849.485 301.35 847.259 301.35C843.297 301.35 840.119 298.312 840.119 294.028C840.119 289.786 843.311 286.72 847.301 286.72C849.513 286.72 851.403 287.672 852.607 289.324ZM847.539 299.082C850.283 299.082 852.551 296.94 852.551 294.028C852.551 291.13 850.283 288.988 847.539 288.988C844.865 288.988 842.723 291.102 842.723 294.028C842.723 296.968 844.865 299.082 847.539 299.082ZM864.666 301.224C861.74 301.224 860.186 299.488 860.186 296.646V289.268H857.372V287.07H860.2L861.25 283.178H862.748V287.07H866.822V289.268H862.748V296.254C862.748 298.116 863.364 299.026 865.086 299.026C865.688 299.026 866.318 298.914 866.808 298.774L867.144 300.902C866.304 301.098 865.464 301.224 864.666 301.224ZM871.073 284.802C870.037 284.802 869.295 284.088 869.295 283.08C869.295 282.058 870.037 281.358 871.073 281.358C872.109 281.358 872.837 282.058 872.837 283.08C872.837 284.088 872.109 284.802 871.073 284.802ZM872.347 301H869.785V287.07H872.347V301ZM882.718 301.35C878.518 301.35 875.228 298.27 875.228 294.056C875.228 289.856 878.574 286.72 882.774 286.72C886.946 286.72 890.264 289.8 890.264 294C890.264 298.214 886.876 301.35 882.718 301.35ZM882.746 299.082C885.476 299.082 887.674 296.94 887.674 294.028C887.674 291.13 885.476 288.988 882.746 288.988C879.974 288.988 877.818 291.13 877.818 294.028C877.818 296.94 879.974 299.082 882.746 299.082ZM900.236 286.72C903.316 286.72 905.472 288.96 905.472 292.208V301H902.91V292.698C902.91 290.304 901.608 288.974 899.41 288.974C897.184 288.974 895.616 290.5 895.616 293.034V301H893.054V287.07H895.252L895.546 288.918C896.54 287.56 898.192 286.72 900.236 286.72ZM914.929 301H911.779L907.621 287.07H910.477L913.375 298.424H913.445L916.217 287.07H919.367L922.139 298.424H922.195L925.065 287.07H927.865L923.735 301H920.571L917.799 289.716H917.729L914.929 301ZM931.639 284.802C930.603 284.802 929.861 284.088 929.861 283.08C929.861 282.058 930.603 281.358 931.639 281.358C932.675 281.358 933.403 282.058 933.403 283.08C933.403 284.088 932.675 284.802 931.639 284.802ZM932.913 301H930.351V287.07H932.913V301ZM948.227 289.254V281.092L950.789 280.826V301H948.591L948.283 298.732C947.065 300.398 945.161 301.35 942.935 301.35C938.973 301.35 935.795 298.312 935.795 294.028C935.795 289.786 938.987 286.72 942.977 286.72C945.161 286.72 947.023 287.644 948.227 289.254ZM943.215 299.082C945.959 299.082 948.227 296.94 948.227 294.028C948.227 291.13 945.959 288.988 943.215 288.988C940.541 288.988 938.399 291.102 938.399 294.028C938.399 296.968 940.541 299.082 943.215 299.082ZM968.534 294.126C968.534 294.364 968.52 294.504 968.492 294.784H956.186C956.382 297.066 958.202 299.194 961.128 299.194C963.228 299.194 965.006 298.102 965.748 296.478L967.946 297.514C966.77 299.838 964.264 301.35 961.128 301.35C956.676 301.35 953.568 298.256 953.568 294.07C953.568 289.73 956.942 286.72 961.072 286.72C965.454 286.72 968.534 289.954 968.534 294.126ZM961.03 288.862C958.594 288.862 956.634 290.598 956.242 292.852H965.846C965.496 290.5 963.522 288.862 961.03 288.862ZM990.923 301H987.997L984.133 294.532H979.275V301H976.699V282.52H984.371C988.221 282.52 990.895 285.012 990.895 288.526C990.895 291.242 989.215 293.356 986.709 294.168L990.923 301ZM984.385 284.802H979.275V292.264H984.385C986.709 292.264 988.249 290.724 988.249 288.54C988.249 286.342 986.709 284.802 984.385 284.802ZM999.668 301.35C995.468 301.35 992.178 298.27 992.178 294.056C992.178 289.856 995.524 286.72 999.724 286.72C1003.9 286.72 1007.21 289.8 1007.21 294C1007.21 298.214 1003.83 301.35 999.668 301.35ZM999.696 299.082C1002.43 299.082 1004.62 296.94 1004.62 294.028C1004.62 291.13 1002.43 288.988 999.696 288.988C996.924 288.988 994.768 291.13 994.768 294.028C994.768 296.94 996.924 299.082 999.696 299.082ZM1012.57 301H1010V281.092L1012.57 280.826V301ZM1019.07 301H1016.51V281.092L1019.07 280.826V301ZM1029.34 301.35C1025.14 301.35 1021.85 298.27 1021.85 294.056C1021.85 289.856 1025.19 286.72 1029.39 286.72C1033.56 286.72 1036.88 289.8 1036.88 294C1036.88 298.214 1033.49 301.35 1029.34 301.35ZM1029.36 299.082C1032.09 299.082 1034.29 296.94 1034.29 294.028C1034.29 291.13 1032.09 288.988 1029.36 288.988C1026.59 288.988 1024.44 291.13 1024.44 294.028C1024.44 296.94 1026.59 299.082 1029.36 299.082ZM1045.8 301.294C1041.95 301.294 1039.63 298.9 1039.63 295.064V287.07H1042.19V295.246C1042.19 297.598 1043.62 299.082 1045.83 299.082C1048.07 299.082 1049.47 297.598 1049.47 295.246V287.07H1052.05V295.064C1052.05 298.872 1049.67 301.294 1045.8 301.294ZM1061.54 301.224C1058.61 301.224 1057.06 299.488 1057.06 296.646V289.268H1054.25V287.07H1057.07L1058.12 283.178H1059.62V287.07H1063.7V289.268H1059.62V296.254C1059.62 298.116 1060.24 299.026 1061.96 299.026C1062.56 299.026 1063.19 298.914 1063.68 298.774L1064.02 300.902C1063.18 301.098 1062.34 301.224 1061.54 301.224Z" fill="#2F7BEB"/>
<path d="M923.767 332.996L919.711 336.38H928.039V338H917.107V336.512L922.435 332.048C924.523 330.296 925.999 328.844 925.999 326.732C925.999 324.74 924.679 323.432 922.507 323.432C920.131 323.432 918.739 325.028 918.739 327.428L917.107 326.732C917.251 323.792 919.603 321.872 922.627 321.872C925.795 321.872 927.799 323.876 927.799 326.624C927.799 329.504 925.723 331.388 923.767 332.996ZM936.053 338.288C932.345 338.288 930.089 335.444 930.089 330.08C930.089 324.716 932.465 321.872 936.149 321.872C939.833 321.872 942.065 324.692 942.065 330.08C942.065 335.468 939.761 338.288 936.053 338.288ZM936.101 336.668C938.825 336.668 940.241 334.484 940.241 330.08C940.241 325.676 938.825 323.492 936.101 323.492C933.377 323.492 931.901 325.652 931.901 330.08C931.901 334.508 933.377 336.668 936.101 336.668ZM950.767 332.996L946.711 336.38H955.039V338H944.107V336.512L949.435 332.048C951.523 330.296 952.999 328.844 952.999 326.732C952.999 324.74 951.679 323.432 949.507 323.432C947.131 323.432 945.739 325.028 945.739 327.428L944.107 326.732C944.251 323.792 946.603 321.872 949.627 321.872C952.795 321.872 954.799 323.876 954.799 326.624C954.799 329.504 952.723 331.388 950.767 332.996ZM963.065 327.908C966.005 327.908 968.261 330.188 968.261 333.068C968.261 336.08 965.801 338.288 962.645 338.288C959.393 338.288 957.089 336.104 957.089 333.02C957.089 331.532 957.677 330.104 959.105 327.824L962.657 322.16H964.613L960.461 328.568C961.133 328.124 962.033 327.908 963.065 327.908ZM962.669 336.74C964.853 336.74 966.437 335.18 966.437 333.068C966.437 330.956 964.853 329.432 962.669 329.432C960.389 329.432 958.877 330.932 958.877 333.068C958.877 335.204 960.413 336.74 962.669 336.74Z" fill="#49505B"/>
</svg>
