<svg width="112" height="105" viewBox="0 0 112 105" fill="none" xmlns="http://www.w3.org/2000/svg">
<ellipse cx="56" cy="52.5" rx="56" ry="52.5" fill="#51C4F3"/>
<path d="M74.8664 38.7225L62.8664 69.7225C62.7477 70.0295 62.555 70.3025 62.3055 70.5173C62.056 70.732 61.7574 70.8818 61.4361 70.9534C61.1148 71.025 60.7808 71.0162 60.4637 70.9278C60.1466 70.8394 59.8563 70.6741 59.6184 70.4465L52.8544 63.9765L48.7064 68.1225C48.5664 68.262 48.3883 68.357 48.1944 68.3953C48.0005 68.4336 47.7996 68.4137 47.6171 68.3379C47.4345 68.2622 47.2785 68.134 47.1688 67.9697C47.059 67.8053 47.0004 67.6121 47.0004 67.4145V58.3765L36.6184 48.4465C36.3608 48.2001 36.1738 47.8893 36.0766 47.5462C35.9795 47.2032 35.9758 46.8405 36.066 46.4956C36.1561 46.1507 36.3368 45.8361 36.5894 45.5845C36.8419 45.3329 37.1571 45.1534 37.5024 45.0645L72.5024 36.0645C72.8582 35.9734 73.2323 35.982 73.5835 36.0894C73.9348 36.1968 74.2497 36.3989 74.4937 36.6734C74.7377 36.948 74.9014 37.2845 74.9668 37.6459C75.0321 38.0074 74.9967 38.3799 74.8644 38.7225H74.8664ZM70.0004 41.0025L48.0644 55.3045L51.5344 58.6245L70.0004 41.0025Z" fill="#FEFAEB"/>
</svg>
