<svg width="24" height="24" viewBox="0 0 24 24" fill="none" xmlns="http://www.w3.org/2000/svg">
<path fill-rule="evenodd" clip-rule="evenodd" d="M1.5 12C1.5 9.21523 2.60625 6.54451 4.57538 4.57538C6.54451 2.60625 9.21523 1.5 12 1.5C14.7848 1.5 17.4555 2.60625 19.4246 4.57538C21.3938 6.54451 22.5 9.21523 22.5 12C22.5 14.7848 21.3938 17.4555 19.4246 19.4246C17.4555 21.3938 14.7848 22.5 12 22.5C9.21523 22.5 6.54451 21.3938 4.57538 19.4246C2.60625 17.4555 1.5 14.7848 1.5 12ZM12.75 6V11.6895L17.031 15.969L15.969 17.031L11.25 12.3105V6H12.75ZM12.75 4.5V3H11.25V4.5H12.75ZM12.75 21V19.5H11.25V21H12.75ZM19.5 11.25H21V12.75H19.5V11.25ZM4.5 11.25H3V12.75H4.5V11.25Z" fill="#FEFAEB"/>
</svg>
