<svg width="112" height="105" viewBox="0 0 112 105" fill="none" xmlns="http://www.w3.org/2000/svg">
<ellipse cx="56" cy="52.5" rx="56" ry="52.5" fill="#51C4F3"/>
<path d="M66 43C61.18 43 57.14 46.44 56.2 51H45.58C44.8 49.24 43.04 48 41 48C39.6739 48 38.4021 48.5268 37.4645 49.4645C36.5268 50.4021 36 51.6739 36 53C36 54.3261 36.5268 55.5979 37.4645 56.5355C38.4021 57.4732 39.6739 58 41 58C43.04 58 44.8 56.76 45.58 55H56.2C56.5784 56.8538 57.475 58.5623 58.7856 59.9269C60.0962 61.2915 61.7671 62.2563 63.6041 62.7092C65.4412 63.1622 67.369 63.0846 69.1638 62.4857C70.9585 61.8867 72.5465 60.7908 73.7433 59.3253C74.9401 57.8599 75.6966 56.085 75.9249 54.2067C76.1532 52.3285 75.844 50.424 75.0331 48.7145C74.2223 47.005 72.9431 45.5606 71.3442 44.5491C69.7452 43.5375 67.8921 43.0004 66 43ZM66 59C62.7 59 60 56.3 60 53C60 49.7 62.7 47 66 47C69.3 47 72 49.7 72 53C72 56.3 69.3 59 66 59Z" fill="#FEFAEB"/>
</svg>
